# xmcd
#
# Track frame offsets:
#	150
#	18610
#	32866
#	51022
#	65751
#	82798
#	97067
#	116766
#	132014
#	149835
#	164110
#	183266
#
# Disc length: 2761 seconds
#
# Revision: 1
# Processed by: cddbd v1.5.2PL0 Copyright (c) Steve Scherf et al.
# Submitted via: CDmax 2.0
#
DISCID=b00ac70c
DTITLE=Heinrich Müller - Chain Of Pearls
DYEAR=2006
DGENRE=Blues
TTITLE0=TV-Queen
TTITLE1=A Final Kiss
TTITLE2=Beautiful Lies
TTITLE3=Friday I'm In Love
TTITLE4=0 7 9
TTITLE5=CEO Lady
TTITLE6=Remember You
TTITLE7=Jungle Show
TTITLE8=Monkey Friend
TTITLE9=She Lost Heart
TTITLE10=Swiss Girls
TTITLE11=African Blues
EXTD=
EXTT0=
EXTT1=
EXTT2=
EXTT3=
EXTT4=
EXTT5=
EXTT6=
EXTT7=
EXTT8=
EXTT9=
EXTT10=
EXTT11=
PLAYORDER=
